<svg width="146" height="47" viewBox="0 0 146 47" fill="none" xmlns="http://www.w3.org/2000/svg">
<path d="M145.121 23.1401L123.869 44.2647L102.615 23.1401L123.869 2.02327L145.121 23.1401Z" fill="#EF3E42"/>
<path d="M0 46.2853L4.68978 13.5859C5.7373 6.37024 13.4005 0.0752762 21.6193 0.0752762C29.9591 0.0752762 33.9163 5.83488 33.1134 11.3617L32.4329 16.1217C31.8759 20.1123 28.909 23.9516 23.6584 26.7901L29.0339 35.8472C29.652 36.8442 29.9006 38.3778 29.652 39.9955C29.0964 43.4469 26.5004 46.2853 23.6584 46.2853C22.1151 46.2853 20.8776 45.4448 20.1385 44.1387L12.2267 30.5479L10.8682 40.0679C10.3724 43.5232 7.77639 46.2853 4.99558 46.2853H0ZM18.7773 6.83189C16.9829 6.83189 15.3159 8.5983 15.0089 10.8238L13.6542 20.68C13.3471 22.9068 14.5209 24.6745 16.3127 24.6745C18.1033 24.6745 19.7715 22.9068 20.0812 20.68L21.4345 10.8238C21.7442 8.5983 20.5666 6.83189 18.7773 6.83189Z" fill="#0067B1"/>
<path d="M38.3526 7.29066C38.9082 3.29876 42.0586 -1.32182e-05 45.2727 -1.32182e-05C48.4856 -1.32182e-05 50.6483 3.29876 50.0914 7.29066L47.8076 23.7949H54.1734L56.5196 7.29066C57.0753 3.29876 60.2282 -1.32182e-05 63.4424 -1.32182e-05C66.6552 -1.32182e-05 68.8179 3.29876 68.261 7.29066L63.8119 38.9931C63.255 42.9837 60.1046 46.2863 56.8892 46.2863C53.6777 46.2863 51.5149 42.9837 52.0706 38.9931L53.4929 28.7075H47.0672L45.6449 38.9931C45.0867 42.9837 41.9363 46.2863 38.7248 46.2863H32.9133L38.3526 7.29066Z" fill="#0067B1"/>
<path d="M100.872 13.2792C100.377 16.3504 98.7071 19.3427 95.7402 22.1061C97.7806 24.2566 98.6446 27.095 98.2126 29.8597L97.7806 32.6994C96.6693 39.9927 89.066 46.2851 80.9109 46.2851H67.9945L72.7519 13.512C73.806 6.29499 81.4678 0.00132467 89.6841 0.00132467C98.0252 0.00132467 102.044 5.75705 101.177 11.2852L100.872 13.2792ZM84.9891 23.6423C82.9487 23.6423 81.0345 25.7139 80.6624 28.2485L79.7359 34.8499C79.3663 37.3819 80.7248 39.4535 82.7639 39.4535C84.803 39.4535 86.7822 37.3819 87.1518 34.8499L88.0796 28.2485C88.4518 25.7139 87.0256 23.6423 84.9891 23.6423ZM87.4615 6.83164C85.4224 6.83164 83.5668 8.90453 83.1348 11.4378L82.3943 15.9663C81.9584 18.4996 83.3833 20.5712 85.4224 20.5712C87.4615 20.5712 89.377 18.4996 89.8116 15.9663L90.5507 11.4378C90.984 8.90453 89.4993 6.83164 87.4615 6.83164Z" fill="#0067B1"/>
</svg>
